<mxfile host="Electron" modified="2024-04-04T00:00:24.693Z" agent="Mozilla/5.0 (Windows NT 10.0; Win64; x64) AppleWebKit/537.36 (KHTML, like Gecko) draw.io/24.1.0 Chrome/120.0.6099.109 Electron/28.1.0 Safari/537.36" etag="HIOunYTGKr5Oy-XlLIq-" version="24.1.0" type="device">
  <diagram name="PÃ¡gina-1" id="JOg8vW9H21MWDvydsEq1">
    <mxGraphModel dx="2442" dy="968" grid="1" gridSize="10" guides="1" tooltips="1" connect="1" arrows="1" fold="1" page="1" pageScale="1" pageWidth="827" pageHeight="1169" math="0" shadow="0">
      <root>
        <mxCell id="0" />
        <mxCell id="1" parent="0" />
        <mxCell id="eND53PCbBlrj-OuI-nxX-19" style="edgeStyle=orthogonalEdgeStyle;rounded=0;orthogonalLoop=1;jettySize=auto;html=1;entryX=0;entryY=0.5;entryDx=0;entryDy=0;endArrow=none;endFill=0;exitX=1;exitY=0.5;exitDx=0;exitDy=0;" edge="1" parent="1" source="eND53PCbBlrj-OuI-nxX-46" target="eND53PCbBlrj-OuI-nxX-16">
          <mxGeometry relative="1" as="geometry" />
        </mxCell>
        <mxCell id="eND53PCbBlrj-OuI-nxX-37" style="edgeStyle=orthogonalEdgeStyle;rounded=0;orthogonalLoop=1;jettySize=auto;html=1;entryX=0.5;entryY=1;entryDx=0;entryDy=0;endArrow=none;endFill=0;" edge="1" parent="1" source="eND53PCbBlrj-OuI-nxX-65" target="eND53PCbBlrj-OuI-nxX-36">
          <mxGeometry relative="1" as="geometry" />
        </mxCell>
        <mxCell id="eND53PCbBlrj-OuI-nxX-2" value="&lt;font style=&quot;font-size: 18px;&quot;&gt;Pe&lt;span style=&quot;color: rgba(0, 0, 0, 0); font-family: monospace; font-size: 0px; text-align: start; text-wrap: nowrap;&quot;&gt;%3CmxGraphModel%3E%3Croot%3E%3CmxCell%20id%3D%220%22%2F%3E%3CmxCell%20id%3D%221%22%20parent%3D%220%22%2F%3E%3CmxCell%20id%3D%222%22%20value%3D%22%26lt%3Bspan%20style%3D%26quot%3Bfont-size%3A%2018px%3B%26quot%3B%26gt%3BContato%26lt%3B%2Fspan%26gt%3B%22%20style%3D%22whiteSpace%3Dwrap%3Bhtml%3D1%3Balign%3Dcenter%3B%22%20vertex%3D%221%22%20parent%3D%221%22%3E%3CmxGeometry%20x%3D%22190%22%20y%3D%22450%22%20width%3D%22110%22%20height%3D%2250%22%20as%3D%22geometry%22%2F%3E%3C%2FmxCell%3E%3C%2Froot%3E%3C%2FmxGraphModel%3E&lt;/span&gt;ssoa&lt;/font&gt;" style="whiteSpace=wrap;html=1;align=center;" vertex="1" parent="1">
          <mxGeometry x="371" y="620" width="110" height="50" as="geometry" />
        </mxCell>
        <mxCell id="eND53PCbBlrj-OuI-nxX-17" style="edgeStyle=orthogonalEdgeStyle;rounded=0;orthogonalLoop=1;jettySize=auto;html=1;entryX=0;entryY=0.5;entryDx=0;entryDy=0;endArrow=none;endFill=0;" edge="1" parent="1" source="eND53PCbBlrj-OuI-nxX-42" target="eND53PCbBlrj-OuI-nxX-12">
          <mxGeometry relative="1" as="geometry" />
        </mxCell>
        <mxCell id="eND53PCbBlrj-OuI-nxX-4" value="&lt;font style=&quot;font-size: 18px;&quot;&gt;Categoria Pessoa&lt;/font&gt;" style="whiteSpace=wrap;html=1;align=center;" vertex="1" parent="1">
          <mxGeometry x="-69" y="615" width="120" height="60" as="geometry" />
        </mxCell>
        <mxCell id="eND53PCbBlrj-OuI-nxX-5" value="&lt;span style=&quot;font-size: 18px;&quot;&gt;Contato&lt;/span&gt;" style="whiteSpace=wrap;html=1;align=center;" vertex="1" parent="1">
          <mxGeometry x="771" y="620" width="125" height="50" as="geometry" />
        </mxCell>
        <mxCell id="eND53PCbBlrj-OuI-nxX-28" style="edgeStyle=orthogonalEdgeStyle;rounded=0;orthogonalLoop=1;jettySize=auto;html=1;entryX=1;entryY=0.5;entryDx=0;entryDy=0;endArrow=none;endFill=0;" edge="1" parent="1" source="eND53PCbBlrj-OuI-nxX-51" target="eND53PCbBlrj-OuI-nxX-27">
          <mxGeometry relative="1" as="geometry" />
        </mxCell>
        <mxCell id="eND53PCbBlrj-OuI-nxX-6" value="&lt;span style=&quot;font-size: 18px;&quot;&gt;Endereco&lt;/span&gt;" style="whiteSpace=wrap;html=1;align=center;" vertex="1" parent="1">
          <mxGeometry x="771" y="795" width="125" height="50" as="geometry" />
        </mxCell>
        <mxCell id="eND53PCbBlrj-OuI-nxX-7" value="&lt;span style=&quot;font-size: 18px;&quot;&gt;Consulta&lt;/span&gt;" style="whiteSpace=wrap;html=1;align=center;" vertex="1" parent="1">
          <mxGeometry x="474" y="240" width="110" height="50" as="geometry" />
        </mxCell>
        <mxCell id="eND53PCbBlrj-OuI-nxX-31" style="edgeStyle=orthogonalEdgeStyle;rounded=0;orthogonalLoop=1;jettySize=auto;html=1;entryX=0;entryY=0.5;entryDx=0;entryDy=0;endArrow=none;endFill=0;" edge="1" parent="1" source="eND53PCbBlrj-OuI-nxX-63" target="eND53PCbBlrj-OuI-nxX-30">
          <mxGeometry relative="1" as="geometry" />
        </mxCell>
        <mxCell id="eND53PCbBlrj-OuI-nxX-8" value="&lt;span style=&quot;font-size: 18px;&quot;&gt;E-mail&lt;/span&gt;" style="whiteSpace=wrap;html=1;align=center;" vertex="1" parent="1">
          <mxGeometry x="-69" y="795" width="120" height="50" as="geometry" />
        </mxCell>
        <mxCell id="eND53PCbBlrj-OuI-nxX-21" style="edgeStyle=orthogonalEdgeStyle;rounded=0;orthogonalLoop=1;jettySize=auto;html=1;exitX=1;exitY=0.5;exitDx=0;exitDy=0;endArrow=none;endFill=0;entryX=0;entryY=0.5;entryDx=0;entryDy=0;" edge="1" parent="1" source="eND53PCbBlrj-OuI-nxX-44" target="eND53PCbBlrj-OuI-nxX-2">
          <mxGeometry relative="1" as="geometry" />
        </mxCell>
        <mxCell id="eND53PCbBlrj-OuI-nxX-12" value="possui" style="shape=rhombus;perimeter=rhombusPerimeter;whiteSpace=wrap;html=1;align=center;" vertex="1" parent="1">
          <mxGeometry x="161" y="615" width="120" height="60" as="geometry" />
        </mxCell>
        <mxCell id="eND53PCbBlrj-OuI-nxX-20" style="edgeStyle=orthogonalEdgeStyle;rounded=0;orthogonalLoop=1;jettySize=auto;html=1;exitX=1;exitY=0.5;exitDx=0;exitDy=0;entryX=0;entryY=0.5;entryDx=0;entryDy=0;endArrow=none;endFill=0;" edge="1" parent="1" source="eND53PCbBlrj-OuI-nxX-48" target="eND53PCbBlrj-OuI-nxX-5">
          <mxGeometry relative="1" as="geometry" />
        </mxCell>
        <mxCell id="eND53PCbBlrj-OuI-nxX-16" value="possui" style="shape=rhombus;perimeter=rhombusPerimeter;whiteSpace=wrap;html=1;align=center;" vertex="1" parent="1">
          <mxGeometry x="571" y="615" width="120" height="60" as="geometry" />
        </mxCell>
        <mxCell id="eND53PCbBlrj-OuI-nxX-29" style="edgeStyle=orthogonalEdgeStyle;rounded=0;orthogonalLoop=1;jettySize=auto;html=1;endArrow=none;endFill=0;entryX=1;entryY=1;entryDx=0;entryDy=0;" edge="1" parent="1" source="eND53PCbBlrj-OuI-nxX-53" target="eND53PCbBlrj-OuI-nxX-2">
          <mxGeometry relative="1" as="geometry">
            <mxPoint x="450" y="690" as="targetPoint" />
            <Array as="points">
              <mxPoint x="481" y="820" />
            </Array>
          </mxGeometry>
        </mxCell>
        <mxCell id="eND53PCbBlrj-OuI-nxX-27" value="possui" style="shape=rhombus;perimeter=rhombusPerimeter;whiteSpace=wrap;html=1;align=center;" vertex="1" parent="1">
          <mxGeometry x="571" y="790" width="120" height="60" as="geometry" />
        </mxCell>
        <mxCell id="eND53PCbBlrj-OuI-nxX-32" style="edgeStyle=orthogonalEdgeStyle;rounded=0;orthogonalLoop=1;jettySize=auto;html=1;endArrow=none;endFill=0;entryX=0;entryY=1;entryDx=0;entryDy=0;" edge="1" parent="1" source="eND53PCbBlrj-OuI-nxX-61" target="eND53PCbBlrj-OuI-nxX-2">
          <mxGeometry relative="1" as="geometry">
            <mxPoint x="370" y="790" as="sourcePoint" />
            <mxPoint x="371.99" y="670" as="targetPoint" />
            <Array as="points">
              <mxPoint x="370" y="810" />
              <mxPoint x="370" y="810" />
            </Array>
          </mxGeometry>
        </mxCell>
        <mxCell id="eND53PCbBlrj-OuI-nxX-30" value="possui" style="shape=rhombus;perimeter=rhombusPerimeter;whiteSpace=wrap;html=1;align=center;" vertex="1" parent="1">
          <mxGeometry x="161" y="790" width="120" height="60" as="geometry" />
        </mxCell>
        <mxCell id="eND53PCbBlrj-OuI-nxX-38" style="edgeStyle=orthogonalEdgeStyle;rounded=0;orthogonalLoop=1;jettySize=auto;html=1;entryX=0.5;entryY=1;entryDx=0;entryDy=0;endArrow=none;endFill=0;" edge="1" parent="1" source="eND53PCbBlrj-OuI-nxX-67" target="eND53PCbBlrj-OuI-nxX-7">
          <mxGeometry relative="1" as="geometry" />
        </mxCell>
        <mxCell id="eND53PCbBlrj-OuI-nxX-36" value="possui" style="shape=rhombus;perimeter=rhombusPerimeter;whiteSpace=wrap;html=1;align=center;" vertex="1" parent="1">
          <mxGeometry x="469" y="410" width="120" height="60" as="geometry" />
        </mxCell>
        <mxCell id="eND53PCbBlrj-OuI-nxX-43" value="" style="edgeStyle=orthogonalEdgeStyle;rounded=0;orthogonalLoop=1;jettySize=auto;html=1;entryX=0;entryY=0.5;entryDx=0;entryDy=0;endArrow=none;endFill=0;" edge="1" parent="1" source="eND53PCbBlrj-OuI-nxX-4" target="eND53PCbBlrj-OuI-nxX-42">
          <mxGeometry relative="1" as="geometry">
            <mxPoint x="51" y="645" as="sourcePoint" />
            <mxPoint x="161" y="645" as="targetPoint" />
          </mxGeometry>
        </mxCell>
        <mxCell id="eND53PCbBlrj-OuI-nxX-42" value="1" style="text;html=1;align=center;verticalAlign=middle;resizable=0;points=[];autosize=1;strokeColor=none;fillColor=none;fontSize=16;" vertex="1" parent="1">
          <mxGeometry x="79" y="630" width="30" height="30" as="geometry" />
        </mxCell>
        <mxCell id="eND53PCbBlrj-OuI-nxX-45" value="" style="edgeStyle=orthogonalEdgeStyle;rounded=0;orthogonalLoop=1;jettySize=auto;html=1;exitX=1;exitY=0.5;exitDx=0;exitDy=0;endArrow=none;endFill=0;entryX=0;entryY=0.5;entryDx=0;entryDy=0;" edge="1" parent="1" source="eND53PCbBlrj-OuI-nxX-12" target="eND53PCbBlrj-OuI-nxX-44">
          <mxGeometry relative="1" as="geometry">
            <mxPoint x="281" y="645" as="sourcePoint" />
            <mxPoint x="371" y="645" as="targetPoint" />
          </mxGeometry>
        </mxCell>
        <mxCell id="eND53PCbBlrj-OuI-nxX-44" value="1" style="text;html=1;align=center;verticalAlign=middle;resizable=0;points=[];autosize=1;strokeColor=none;fillColor=none;fontSize=16;" vertex="1" parent="1">
          <mxGeometry x="310" y="630" width="30" height="30" as="geometry" />
        </mxCell>
        <mxCell id="eND53PCbBlrj-OuI-nxX-47" value="" style="edgeStyle=orthogonalEdgeStyle;rounded=0;orthogonalLoop=1;jettySize=auto;html=1;entryX=0;entryY=0.5;entryDx=0;entryDy=0;endArrow=none;endFill=0;exitX=1;exitY=0.5;exitDx=0;exitDy=0;" edge="1" parent="1" source="eND53PCbBlrj-OuI-nxX-2" target="eND53PCbBlrj-OuI-nxX-46">
          <mxGeometry relative="1" as="geometry">
            <mxPoint x="481" y="645" as="sourcePoint" />
            <mxPoint x="571" y="645" as="targetPoint" />
          </mxGeometry>
        </mxCell>
        <mxCell id="eND53PCbBlrj-OuI-nxX-46" value="1" style="text;html=1;align=center;verticalAlign=middle;resizable=0;points=[];autosize=1;strokeColor=none;fillColor=none;fontSize=16;" vertex="1" parent="1">
          <mxGeometry x="510" y="630" width="30" height="30" as="geometry" />
        </mxCell>
        <mxCell id="eND53PCbBlrj-OuI-nxX-50" value="" style="edgeStyle=orthogonalEdgeStyle;rounded=0;orthogonalLoop=1;jettySize=auto;html=1;exitX=1;exitY=0.5;exitDx=0;exitDy=0;entryX=0;entryY=0.5;entryDx=0;entryDy=0;endArrow=none;endFill=0;" edge="1" parent="1" source="eND53PCbBlrj-OuI-nxX-16" target="eND53PCbBlrj-OuI-nxX-48">
          <mxGeometry relative="1" as="geometry">
            <mxPoint x="691" y="645" as="sourcePoint" />
            <mxPoint x="771" y="645" as="targetPoint" />
          </mxGeometry>
        </mxCell>
        <mxCell id="eND53PCbBlrj-OuI-nxX-48" value="n" style="text;html=1;align=center;verticalAlign=middle;resizable=0;points=[];autosize=1;strokeColor=none;fillColor=none;fontSize=16;" vertex="1" parent="1">
          <mxGeometry x="720" y="630" width="30" height="30" as="geometry" />
        </mxCell>
        <mxCell id="eND53PCbBlrj-OuI-nxX-52" value="" style="edgeStyle=orthogonalEdgeStyle;rounded=0;orthogonalLoop=1;jettySize=auto;html=1;entryX=1;entryY=0.5;entryDx=0;entryDy=0;endArrow=none;endFill=0;" edge="1" parent="1" source="eND53PCbBlrj-OuI-nxX-6" target="eND53PCbBlrj-OuI-nxX-51">
          <mxGeometry relative="1" as="geometry">
            <mxPoint x="771" y="820" as="sourcePoint" />
            <mxPoint x="691" y="820" as="targetPoint" />
          </mxGeometry>
        </mxCell>
        <mxCell id="eND53PCbBlrj-OuI-nxX-51" value="n" style="text;html=1;align=center;verticalAlign=middle;resizable=0;points=[];autosize=1;strokeColor=none;fillColor=none;fontSize=16;" vertex="1" parent="1">
          <mxGeometry x="720" y="805" width="30" height="30" as="geometry" />
        </mxCell>
        <mxCell id="eND53PCbBlrj-OuI-nxX-59" value="" style="edgeStyle=orthogonalEdgeStyle;rounded=0;orthogonalLoop=1;jettySize=auto;html=1;endArrow=none;endFill=0;" edge="1" parent="1" source="eND53PCbBlrj-OuI-nxX-27" target="eND53PCbBlrj-OuI-nxX-53">
          <mxGeometry relative="1" as="geometry">
            <mxPoint x="571" y="820" as="sourcePoint" />
            <mxPoint x="453" y="670" as="targetPoint" />
          </mxGeometry>
        </mxCell>
        <mxCell id="eND53PCbBlrj-OuI-nxX-53" value="1" style="text;html=1;align=center;verticalAlign=middle;resizable=0;points=[];autosize=1;strokeColor=none;fillColor=none;fontSize=16;" vertex="1" parent="1">
          <mxGeometry x="465" y="805" width="30" height="30" as="geometry" />
        </mxCell>
        <mxCell id="eND53PCbBlrj-OuI-nxX-60" value="" style="edgeStyle=orthogonalEdgeStyle;rounded=0;orthogonalLoop=1;jettySize=auto;html=1;endArrow=none;endFill=0;" edge="1" parent="1" source="eND53PCbBlrj-OuI-nxX-27">
          <mxGeometry relative="1" as="geometry">
            <mxPoint x="580" y="820" as="sourcePoint" />
            <mxPoint x="560" y="820" as="targetPoint" />
          </mxGeometry>
        </mxCell>
        <mxCell id="eND53PCbBlrj-OuI-nxX-62" value="" style="edgeStyle=orthogonalEdgeStyle;rounded=0;orthogonalLoop=1;jettySize=auto;html=1;endArrow=none;endFill=0;" edge="1" parent="1" source="eND53PCbBlrj-OuI-nxX-30" target="eND53PCbBlrj-OuI-nxX-61">
          <mxGeometry relative="1" as="geometry">
            <mxPoint x="281" y="820" as="sourcePoint" />
            <mxPoint x="398" y="670" as="targetPoint" />
          </mxGeometry>
        </mxCell>
        <mxCell id="eND53PCbBlrj-OuI-nxX-61" value="1" style="text;html=1;align=center;verticalAlign=middle;resizable=0;points=[];autosize=1;strokeColor=none;fillColor=none;fontSize=16;" vertex="1" parent="1">
          <mxGeometry x="354" y="805" width="30" height="30" as="geometry" />
        </mxCell>
        <mxCell id="eND53PCbBlrj-OuI-nxX-64" value="" style="edgeStyle=orthogonalEdgeStyle;rounded=0;orthogonalLoop=1;jettySize=auto;html=1;entryX=0;entryY=0.5;entryDx=0;entryDy=0;endArrow=none;endFill=0;" edge="1" parent="1" source="eND53PCbBlrj-OuI-nxX-8" target="eND53PCbBlrj-OuI-nxX-63">
          <mxGeometry relative="1" as="geometry">
            <mxPoint x="51" y="820" as="sourcePoint" />
            <mxPoint x="161" y="820" as="targetPoint" />
          </mxGeometry>
        </mxCell>
        <mxCell id="eND53PCbBlrj-OuI-nxX-63" value="1" style="text;html=1;align=center;verticalAlign=middle;resizable=0;points=[];autosize=1;strokeColor=none;fillColor=none;fontSize=16;" vertex="1" parent="1">
          <mxGeometry x="79" y="805" width="30" height="30" as="geometry" />
        </mxCell>
        <mxCell id="eND53PCbBlrj-OuI-nxX-68" value="" style="edgeStyle=orthogonalEdgeStyle;rounded=0;orthogonalLoop=1;jettySize=auto;html=1;entryX=0.5;entryY=1;entryDx=0;entryDy=0;endArrow=none;endFill=0;" edge="1" parent="1" source="eND53PCbBlrj-OuI-nxX-36" target="eND53PCbBlrj-OuI-nxX-67">
          <mxGeometry relative="1" as="geometry">
            <mxPoint x="426" y="430" as="sourcePoint" />
            <mxPoint x="426" y="290" as="targetPoint" />
          </mxGeometry>
        </mxCell>
        <mxCell id="eND53PCbBlrj-OuI-nxX-67" value="n" style="text;html=1;align=center;verticalAlign=middle;resizable=0;points=[];autosize=1;strokeColor=none;fillColor=none;fontSize=16;" vertex="1" parent="1">
          <mxGeometry x="514" y="340" width="30" height="30" as="geometry" />
        </mxCell>
        <mxCell id="eND53PCbBlrj-OuI-nxX-70" value="&lt;span style=&quot;font-size: 18px;&quot;&gt;ProntuÃ¡rio&lt;/span&gt;" style="whiteSpace=wrap;html=1;align=center;" vertex="1" parent="1">
          <mxGeometry x="268" y="240" width="110" height="50" as="geometry" />
        </mxCell>
        <mxCell id="eND53PCbBlrj-OuI-nxX-72" style="edgeStyle=orthogonalEdgeStyle;rounded=0;orthogonalLoop=1;jettySize=auto;html=1;endArrow=none;endFill=0;entryX=0.25;entryY=0;entryDx=0;entryDy=0;" edge="1" parent="1" source="eND53PCbBlrj-OuI-nxX-74" target="eND53PCbBlrj-OuI-nxX-2">
          <mxGeometry relative="1" as="geometry">
            <mxPoint x="360" y="390" as="targetPoint" />
          </mxGeometry>
        </mxCell>
        <mxCell id="eND53PCbBlrj-OuI-nxX-73" style="edgeStyle=orthogonalEdgeStyle;rounded=0;orthogonalLoop=1;jettySize=auto;html=1;endArrow=none;endFill=0;entryX=0.5;entryY=1;entryDx=0;entryDy=0;" edge="1" parent="1" source="eND53PCbBlrj-OuI-nxX-76" target="eND53PCbBlrj-OuI-nxX-70">
          <mxGeometry relative="1" as="geometry" />
        </mxCell>
        <mxCell id="eND53PCbBlrj-OuI-nxX-71" value="possui" style="shape=rhombus;perimeter=rhombusPerimeter;whiteSpace=wrap;html=1;align=center;" vertex="1" parent="1">
          <mxGeometry x="263" y="410" width="120" height="60" as="geometry" />
        </mxCell>
        <mxCell id="eND53PCbBlrj-OuI-nxX-75" value="" style="edgeStyle=orthogonalEdgeStyle;rounded=0;orthogonalLoop=1;jettySize=auto;html=1;endArrow=none;endFill=0;exitX=0.5;exitY=1;exitDx=0;exitDy=0;" edge="1" parent="1" source="eND53PCbBlrj-OuI-nxX-71" target="eND53PCbBlrj-OuI-nxX-74">
          <mxGeometry relative="1" as="geometry">
            <mxPoint x="350" y="265" as="sourcePoint" />
            <mxPoint x="425" y="265" as="targetPoint" />
          </mxGeometry>
        </mxCell>
        <mxCell id="eND53PCbBlrj-OuI-nxX-74" value="1" style="text;html=1;align=center;verticalAlign=middle;resizable=0;points=[];autosize=1;strokeColor=none;fillColor=none;fontSize=16;" vertex="1" parent="1">
          <mxGeometry x="384" y="530" width="30" height="30" as="geometry" />
        </mxCell>
        <mxCell id="eND53PCbBlrj-OuI-nxX-77" value="" style="edgeStyle=orthogonalEdgeStyle;rounded=0;orthogonalLoop=1;jettySize=auto;html=1;endArrow=none;endFill=0;" edge="1" parent="1" source="eND53PCbBlrj-OuI-nxX-71" target="eND53PCbBlrj-OuI-nxX-76">
          <mxGeometry relative="1" as="geometry">
            <mxPoint x="220" y="265" as="sourcePoint" />
            <mxPoint x="151" y="265" as="targetPoint" />
          </mxGeometry>
        </mxCell>
        <mxCell id="eND53PCbBlrj-OuI-nxX-76" value="n" style="text;html=1;align=center;verticalAlign=middle;resizable=0;points=[];autosize=1;strokeColor=none;fillColor=none;fontSize=16;" vertex="1" parent="1">
          <mxGeometry x="308" y="340" width="30" height="30" as="geometry" />
        </mxCell>
        <mxCell id="eND53PCbBlrj-OuI-nxX-79" value="" style="edgeStyle=orthogonalEdgeStyle;rounded=0;orthogonalLoop=1;jettySize=auto;html=1;endArrow=none;endFill=0;exitX=0.75;exitY=0;exitDx=0;exitDy=0;" edge="1" parent="1" source="eND53PCbBlrj-OuI-nxX-2" target="eND53PCbBlrj-OuI-nxX-65">
          <mxGeometry relative="1" as="geometry">
            <mxPoint x="454" y="620" as="sourcePoint" />
            <mxPoint x="450" y="560" as="targetPoint" />
          </mxGeometry>
        </mxCell>
        <mxCell id="eND53PCbBlrj-OuI-nxX-65" value="1" style="text;html=1;align=center;verticalAlign=middle;resizable=0;points=[];autosize=1;strokeColor=none;fillColor=none;fontSize=16;" vertex="1" parent="1">
          <mxGeometry x="439" y="530" width="30" height="30" as="geometry" />
        </mxCell>
        <mxCell id="eND53PCbBlrj-OuI-nxX-80" value="&lt;span style=&quot;font-size: 18px;&quot;&gt;Login&lt;/span&gt;" style="whiteSpace=wrap;html=1;align=center;" vertex="1" parent="1">
          <mxGeometry x="371" y="1060" width="110" height="50" as="geometry" />
        </mxCell>
        <mxCell id="eND53PCbBlrj-OuI-nxX-83" style="edgeStyle=orthogonalEdgeStyle;rounded=0;orthogonalLoop=1;jettySize=auto;html=1;endArrow=none;endFill=0;" edge="1" parent="1" source="eND53PCbBlrj-OuI-nxX-87" target="eND53PCbBlrj-OuI-nxX-80">
          <mxGeometry relative="1" as="geometry" />
        </mxCell>
        <mxCell id="eND53PCbBlrj-OuI-nxX-84" style="edgeStyle=orthogonalEdgeStyle;rounded=0;orthogonalLoop=1;jettySize=auto;html=1;endArrow=none;endFill=0;" edge="1" parent="1" source="eND53PCbBlrj-OuI-nxX-85" target="eND53PCbBlrj-OuI-nxX-2">
          <mxGeometry relative="1" as="geometry" />
        </mxCell>
        <mxCell id="eND53PCbBlrj-OuI-nxX-82" value="possui" style="shape=rhombus;perimeter=rhombusPerimeter;whiteSpace=wrap;html=1;align=center;" vertex="1" parent="1">
          <mxGeometry x="366" y="845" width="120" height="60" as="geometry" />
        </mxCell>
        <mxCell id="eND53PCbBlrj-OuI-nxX-86" value="" style="edgeStyle=orthogonalEdgeStyle;rounded=0;orthogonalLoop=1;jettySize=auto;html=1;endArrow=none;endFill=0;" edge="1" parent="1" source="eND53PCbBlrj-OuI-nxX-82" target="eND53PCbBlrj-OuI-nxX-85">
          <mxGeometry relative="1" as="geometry">
            <mxPoint x="426" y="845" as="sourcePoint" />
            <mxPoint x="426" y="670" as="targetPoint" />
          </mxGeometry>
        </mxCell>
        <mxCell id="eND53PCbBlrj-OuI-nxX-85" value="1" style="text;html=1;align=center;verticalAlign=middle;resizable=0;points=[];autosize=1;strokeColor=none;fillColor=none;fontSize=16;" vertex="1" parent="1">
          <mxGeometry x="411" y="740" width="30" height="30" as="geometry" />
        </mxCell>
        <mxCell id="eND53PCbBlrj-OuI-nxX-88" value="" style="edgeStyle=orthogonalEdgeStyle;rounded=0;orthogonalLoop=1;jettySize=auto;html=1;endArrow=none;endFill=0;" edge="1" parent="1" source="eND53PCbBlrj-OuI-nxX-82" target="eND53PCbBlrj-OuI-nxX-87">
          <mxGeometry relative="1" as="geometry">
            <mxPoint x="426" y="905" as="sourcePoint" />
            <mxPoint x="426" y="1040" as="targetPoint" />
          </mxGeometry>
        </mxCell>
        <mxCell id="eND53PCbBlrj-OuI-nxX-87" value="1" style="text;html=1;align=center;verticalAlign=middle;resizable=0;points=[];autosize=1;strokeColor=none;fillColor=none;fontSize=16;" vertex="1" parent="1">
          <mxGeometry x="411" y="960" width="30" height="30" as="geometry" />
        </mxCell>
      </root>
    </mxGraphModel>
  </diagram>
</mxfile>
